<svg xmlns="http://www.w3.org/2000/svg" viewBox="0 0 181.68 173.04"><defs><style>.cls-1{fill:#5391c4;}.cls-2{fill:#4653ce;}.cls-3,.cls-5{fill:#fff;}.cls-4{fill:#5a6bcc;}.cls-5{opacity:0.42;}</style></defs><title>Blue</title><g id="Layer_2" data-name="Layer 2"><g id="blue"><circle class="cls-1" cx="150.73" cy="38.12" r="18"/><circle class="cls-1" cx="121.03" cy="20" r="18"/><circle class="cls-1" cx="90.02" cy="18" r="18"/><circle class="cls-1" cx="61.02" cy="20" r="18"/><circle class="cls-1" cx="40.01" cy="36" r="18"/><circle class="cls-1" cx="26" cy="58.01" r="18"/><circle class="cls-1" cx="18" cy="88.01" r="18"/><circle class="cls-1" cx="163.67" cy="64.07" r="18"/><circle class="cls-1" cx="163.19" cy="96.72" r="18"/><circle class="cls-1" cx="155.03" cy="122.03" r="18"/><circle class="cls-1" cx="137.03" cy="141.03" r="18"/><circle class="cls-1" cx="108.03" cy="155.03" r="18"/><circle class="cls-1" cx="75.02" cy="155.03" r="18"/><circle class="cls-1" cx="45.02" cy="142.03" r="18"/><circle class="cls-1" cx="30.01" cy="115.03" r="18"/><circle class="cls-2" cx="91.96" cy="87.92" r="70"/><circle class="cls-3" cx="108.46" cy="140.42" r="17.5"/><circle cx="109.46" cy="143.42" r="8.5"/><path class="cls-4" d="M109.75,137.76a18.67,18.67,0,0,1,16.77,11,20.4,20.4,0,0,0,1.44-7.57c0-10.9-8.39-19.73-18.75-19.73s-18.75,8.83-18.75,19.73a20.5,20.5,0,0,0,2,8.77A18.78,18.78,0,0,1,109.75,137.76Z"/><circle class="cls-3" cx="75.46" cy="140.42" r="17.5"/><circle cx="76.46" cy="143.42" r="8.5"/><path class="cls-4" d="M76.75,137.76a18.67,18.67,0,0,1,16.77,11A20.4,20.4,0,0,0,95,141.15c0-10.9-8.39-19.73-18.75-19.73s-18.75,8.83-18.75,19.73a20.5,20.5,0,0,0,2,8.77A18.78,18.78,0,0,1,76.75,137.76Z"/><circle class="cls-5" cx="89.96" cy="119.92" r="5"/><circle class="cls-5" cx="132.96" cy="114.92" r="5"/><circle class="cls-5" cx="108.96" cy="78.92" r="5"/><circle class="cls-5" cx="66.96" cy="81.92" r="5"/><circle class="cls-5" cx="47.96" cy="119.92" r="5"/><circle class="cls-5" cx="43.96" cy="63.92" r="5"/><circle class="cls-5" cx="84.96" cy="45.92" r="5"/><circle class="cls-5" cx="138.96" cy="73.92" r="5"/><circle class="cls-5" cx="125.96" cy="40.92" r="5"/></g></g></svg>