<svg xmlns="http://www.w3.org/2000/svg" viewBox="0 0 207.5 147.91"><defs><style>.cls-1{fill:#f45f0c;}.cls-2{fill:#ea956a;}.cls-3{fill:#fff;}</style></defs><title>Orange</title><g id="Layer_2" data-name="Layer 2"><g id="orange"><path class="cls-1" d="M171.59,51.93s8.22-26.48,19.54-25.12,6.11,7.18,6.15,14.26,11.35,8.43,10.13,20.74-10.7,9.66-6.72,16.15-8.59,37.66-14.63,17.32-16.5-22.84-20.2-27.34S171.59,51.93,171.59,51.93Z"/><path class="cls-1" d="M35.92,51.93S27.69,25.45,16.37,26.81,10.26,34,10.23,41.07-1.13,49.5.09,61.81,10.8,71.47,6.81,78s8.6,37.66,14.63,17.32S38,72.44,41.64,67.94,35.92,51.93,35.92,51.93Z"/><path class="cls-2" d="M10.53,49.21s22.3.92,23.74,11.94-3.6,9.18-3.6,9.18,2.88-6.42-2.88-10.1-2.87-3.67-10.07-3.67S10.53,49.21,10.53,49.21Z"/><path class="cls-2" d="M7.59,70.14S26.3,58,33.86,66.1s2.39,9.56,2.39,9.56-1.38-6.9-8.2-6.56S23.58,67.78,17.71,72,7.59,70.14,7.59,70.14Z"/><path class="cls-2" d="M195,49.21s-22.3.92-23.74,11.94,3.6,9.18,3.6,9.18-2.88-6.42,2.88-10.1,2.87-3.67,10.07-3.67S195,49.21,195,49.21Z"/><path class="cls-2" d="M198,70.14s-18.71-12.18-26.27-4-2.39,9.56-2.39,9.56,1.38-6.9,8.2-6.56S182,67.78,187.85,72,198,70.14,198,70.14Z"/><path class="cls-1" d="M101.08,127a11,11,0,0,0-4.77,20.65,5.49,5.49,0,1,1,10,.25,11,11,0,0,0-5.24-20.9Z"/><circle class="cls-1" cx="103.53" cy="70" r="70"/><circle class="cls-3" cx="83.53" cy="106" r="22"/><circle cx="92.53" cy="114.38" r="7.33"/><circle class="cls-3" cx="114.03" cy="117.5" r="10.5"/><circle cx="109.03" cy="117.5" r="3.5"/><circle class="cls-2" cx="145.53" cy="31" r="8"/><circle class="cls-2" cx="50.53" cy="76" r="8"/><circle class="cls-2" cx="103.53" cy="56" r="17"/><circle class="cls-2" cx="141.53" cy="93" r="12"/><circle class="cls-2" cx="83.53" cy="27" r="10"/></g></g></svg>