<svg xmlns="http://www.w3.org/2000/svg" viewBox="0 0 173.73 167.39"><defs><style>.cls-1{fill:#763c77;}.cls-2{fill:#e5aee5;opacity:0.27;}.cls-3{fill:#fff;}</style></defs><title>purple</title><g id="Layer_2" data-name="Layer 2"><g id="purple"><path class="cls-1" d="M107.7,15.14,113.19,32A21.9,21.9,0,0,0,134,47.16h17.75c21.23,0,30,27.16,12.88,39.63L150.29,97.23a21.91,21.91,0,0,0-8,24.49l5.49,16.89c6.56,20.18-16.55,37-33.72,24.49L99.74,152.67a21.9,21.9,0,0,0-25.75,0L59.62,163.1c-17.17,12.48-40.27-4.31-33.71-24.49l5.48-16.89a21.9,21.9,0,0,0-7.95-24.49L9.07,86.79C-8.1,74.32.73,47.16,22,47.16H39.7A21.9,21.9,0,0,0,60.54,32L66,15.14C72.58-5,101.14-5,107.7,15.14Z"/><path class="cls-2" d="M58.07,121.87l.57,1.73a2.25,2.25,0,0,0,2.14,1.56h1.83a2.25,2.25,0,0,1,1.32,4.08l-1.48,1.07a2.25,2.25,0,0,0-.82,2.52l.57,1.73a2.25,2.25,0,0,1-3.47,2.52L57.26,136a2.27,2.27,0,0,0-2.65,0l-1.48,1.07a2.25,2.25,0,0,1-3.47-2.52l.57-1.73a2.25,2.25,0,0,0-.82-2.52l-1.48-1.07a2.26,2.26,0,0,1,1.33-4.08h1.82a2.25,2.25,0,0,0,2.14-1.56l.57-1.73A2.25,2.25,0,0,1,58.07,121.87Z"/><path class="cls-2" d="M145.07,59.87l.57,1.73a2.25,2.25,0,0,0,2.14,1.56h1.83a2.25,2.25,0,0,1,1.32,4.08l-1.48,1.07a2.25,2.25,0,0,0-.82,2.52l.57,1.73a2.25,2.25,0,0,1-3.47,2.52L144.26,74a2.27,2.27,0,0,0-2.65,0l-1.48,1.07a2.25,2.25,0,0,1-3.47-2.52l.57-1.73a2.25,2.25,0,0,0-.82-2.52l-1.48-1.07a2.26,2.26,0,0,1,1.33-4.08h1.82a2.25,2.25,0,0,0,2.14-1.56l.57-1.73A2.25,2.25,0,0,1,145.07,59.87Z"/><path class="cls-2" d="M100.07,91.87l.57,1.73a2.25,2.25,0,0,0,2.14,1.56h1.83a2.25,2.25,0,0,1,1.32,4.08l-1.48,1.07a2.25,2.25,0,0,0-.82,2.52l.57,1.73a2.25,2.25,0,0,1-3.47,2.52L99.26,106a2.27,2.27,0,0,0-2.65,0l-1.48,1.07a2.25,2.25,0,0,1-3.47-2.52l.57-1.73a2.25,2.25,0,0,0-.82-2.52l-1.48-1.07a2.26,2.26,0,0,1,1.33-4.08h1.82a2.25,2.25,0,0,0,2.14-1.56l.57-1.73A2.25,2.25,0,0,1,100.07,91.87Z"/><path class="cls-2" d="M19.07,59.87l.57,1.73a2.25,2.25,0,0,0,2.14,1.56h1.83a2.25,2.25,0,0,1,1.32,4.08l-1.48,1.07a2.25,2.25,0,0,0-.82,2.52l.57,1.73a2.25,2.25,0,0,1-3.47,2.52L18.26,74a2.27,2.27,0,0,0-2.65,0l-1.48,1.07a2.25,2.25,0,0,1-3.47-2.52l.57-1.73a2.25,2.25,0,0,0-.82-2.52L8.93,67.24a2.26,2.26,0,0,1,1.33-4.08h1.82a2.25,2.25,0,0,0,2.14-1.56l.57-1.73A2.25,2.25,0,0,1,19.07,59.87Z"/><path class="cls-2" d="M96.07,11.87l.57,1.73a2.25,2.25,0,0,0,2.14,1.56h1.83a2.25,2.25,0,0,1,1.32,4.08l-1.48,1.07a2.25,2.25,0,0,0-.82,2.52l.57,1.73a2.25,2.25,0,0,1-3.47,2.52L95.26,26a2.27,2.27,0,0,0-2.65,0l-1.48,1.07a2.25,2.25,0,0,1-3.47-2.52l.57-1.73a2.25,2.25,0,0,0-.82-2.52l-1.48-1.07a2.26,2.26,0,0,1,1.33-4.08h1.82a2.25,2.25,0,0,0,2.14-1.56l.57-1.73A2.25,2.25,0,0,1,96.07,11.87Z"/><path class="cls-2" d="M136.07,135.87l.57,1.73a2.25,2.25,0,0,0,2.14,1.56h1.83a2.25,2.25,0,0,1,1.32,4.08l-1.48,1.07a2.25,2.25,0,0,0-.82,2.52l.57,1.73a2.25,2.25,0,0,1-3.47,2.52L135.26,150a2.27,2.27,0,0,0-2.65,0l-1.48,1.07a2.25,2.25,0,0,1-3.47-2.52l.57-1.73a2.25,2.25,0,0,0-.82-2.52l-1.48-1.07a2.26,2.26,0,0,1,1.33-4.08h1.82a2.25,2.25,0,0,0,2.14-1.56l.57-1.73A2.25,2.25,0,0,1,136.07,135.87Z"/><circle class="cls-3" cx="67.86" cy="65.16" r="12"/><circle cx="67.86" cy="65.16" r="6"/><rect class="cls-3" x="86.86" y="63.55" width="23" height="2.97"/><rect class="cls-3" x="86.49" y="63.18" width="23" height="2.97" transform="translate(33.33 162.65) rotate(-90)"/></g></g></svg>