<svg xmlns="http://www.w3.org/2000/svg" viewBox="0 0 275.19 147.98"><defs><style>.cls-1{fill:#ddb90b;}.cls-2{fill:#fff;}.cls-3{fill:#dbcd95;}</style></defs><title>Yellow</title><g id="Layer_2" data-name="Layer 2"><g id="Yellow"><circle class="cls-1" cx="140.94" cy="77.98" r="70"/><circle class="cls-2" cx="161.94" cy="117.98" r="21"/><circle cx="161.94" cy="125.98" r="7"/><circle class="cls-2" cx="119.94" cy="117.98" r="21"/><circle cx="119.94" cy="125.98" r="7"/><path class="cls-1" d="M85.94,62a22,22,0,0,0-21-17.13c-18-1-23-9.07-41,0s-27,4-23-4,5-1,23-6,23-10.08,35-4,20,1,27,10.08S85.94,62,85.94,62Z"/><path class="cls-1" d="M85.94,88a22,22,0,0,0-21-17.13c-18-1-23-9.07-41,0s-27,4-23-4,5-1,23-6,23-10.08,35-4,20,1,27,10.08S85.94,88,85.94,88Z"/><path class="cls-1" d="M109.09,99.17A22,22,0,0,0,84,88.9c-17.51,4.29-24.64-2-39.22,11.95s-24.65,11.73-23.17,2.85,4.49-2.42,20.24-12.49,19.06-16.34,32.3-14,19.43-4.87,28.77,1.77S109.09,99.17,109.09,99.17Z"/><path class="cls-1" d="M114.75,71.39a22,22,0,0,0-5.36-26.56c-13.28-12.2-12-21.6-31.7-26S54.27,4.8,62.47,1.11,67,3.5,84.09,11s24.17,6.8,29.61,19.09S128.52,43.58,128.18,55,114.75,71.39,114.75,71.39Z"/><path class="cls-1" d="M189.25,62a22,22,0,0,1,21-17.13c18-1,23-9.07,41,0s27,4,23-4-5-1-23-6-23-10.08-35-4-20,1-27,10.08S189.25,62,189.25,62Z"/><path class="cls-1" d="M189.25,88a22,22,0,0,1,21-17.13c18-1,23-9.07,41,0s27,4,23-4-5-1-23-6-23-10.08-35-4-20,1-27,10.08S189.25,88,189.25,88Z"/><path class="cls-1" d="M166.09,99.17A22,22,0,0,1,191.17,88.9c17.51,4.29,24.65-2,39.22,11.95s24.66,11.73,23.18,2.85-4.49-2.42-20.24-12.49-19.07-16.34-32.31-14-19.42-4.87-28.76,1.77S166.09,99.17,166.09,99.17Z"/><path class="cls-1" d="M160.43,71.39a22,22,0,0,1,5.37-26.56c13.27-12.2,12-21.6,31.69-26s23.43-14,15.23-17.71S208.21,3.5,191.1,11s-24.17,6.8-29.61,19.09S146.67,43.58,147,55,160.43,71.39,160.43,71.39Z"/><path class="cls-3" d="M140.94,31c27.18,0,49.82,8,54.92,18.5a10.34,10.34,0,0,0,1.08-4.5c0-12.7-25.07-23-56-23s-56,10.3-56,23A10.2,10.2,0,0,0,86,49.48C91.11,38.93,113.76,31,140.94,31Z"/><path class="cls-3" d="M141.44,57c30.33,0,55.61,8,61.29,18.5a9.38,9.38,0,0,0,1.21-4.5c0-12.7-28-23-62.5-23s-62.5,10.3-62.5,23a9.48,9.48,0,0,0,1.2,4.5C85.83,64.93,111.11,57,141.44,57Z"/><path class="cls-3" d="M141.44,83c30.33,0,55.61,8,61.29,18.5a9.38,9.38,0,0,0,1.21-4.5c0-12.7-28-23-62.5-23s-62.5,10.3-62.5,23a9.48,9.48,0,0,0,1.2,4.5C85.83,90.93,111.11,83,141.44,83Z"/></g></g></svg>